<?xml version="1.0" standalone="no"?>
<!DOCTYPE svg PUBLIC "-//W3C//DTD SVG 20010904//EN"
 "http://www.w3.org/TR/2001/REC-SVG-20010904/DTD/svg10.dtd">
<svg version="1.0" xmlns="http://www.w3.org/2000/svg"
 width="1280.000000pt" height="1280.000000pt" viewBox="0 0 1280.000000 1280.000000"
 preserveAspectRatio="xMidYMid meet">
<metadata>
Created by potrace 1.14, written by Peter Selinger 2001-2017
</metadata>
<g transform="translate(0.000000,1280.000000) scale(0.100000,-0.100000)"
fill="#000000" stroke="none">
<path d="M11502 12754 c1 -22 -11 -176 -17 -214 -2 -14 -6 -56 -10 -95 -3 -38
-7 -90 -10 -115 -4 -43 -9 -93 -20 -220 -3 -30 -7 -64 -9 -75 -2 -11 -7 -63
-10 -115 -4 -52 -9 -108 -11 -125 -6 -48 -15 -135 -20 -200 -5 -64 -13 -146
-20 -210 -3 -22 -7 -71 -10 -110 -9 -109 -14 -128 -44 -160 -34 -35 -56 -77
-66 -123 -4 -19 -7 -288 -7 -598 -1 -405 -4 -564 -12 -565 -6 0 -63 -2 -126
-4 -63 -1 -127 -8 -142 -14 -16 -6 -28 -8 -28 -5 0 12 -96 -50 -133 -85 -155
-146 -105 -385 101 -477 67 -30 78 -32 182 -33 l85 -1 0 -1462 c1 -1316 3
-1534 20 -1617 10 -54 38 -138 58 -176 l21 -40 0 -1859 1 -1859 -25 -48 c-71
-134 -223 -224 -467 -273 -118 -24 -120 -25 -191 -32 -37 -3 -83 -9 -102 -11
-19 -3 -693 -7 -1498 -8 -1307 -3 -1464 -1 -1469 12 -5 12 -8 271 -4 319 1 8
280 11 1004 11 551 0 1029 3 1061 7 32 4 91 18 130 30 259 83 414 266 479 566
17 77 20 295 20 1510 0 1322 0 1336 20 1410 21 74 21 91 24 1590 l3 1515 95 2
c173 4 277 38 354 115 154 156 91 387 -128 472 -56 22 -108 30 -196 30 l-71 0
1 91 c0 99 -9 125 -67 191 l-33 37 -1 416 c-1 463 -1 469 -65 546 -23 28 -39
58 -39 74 -1 27 -6 110 -15 251 -3 47 -8 117 -10 155 -2 39 -7 106 -10 150 -3
44 -7 112 -10 150 -2 39 -7 111 -10 160 -4 80 -8 128 -20 295 -2 25 -7 97 -11
160 -4 63 -8 126 -9 140 -2 14 -3 49 -4 79 -1 71 -8 63 -16 -19 -3 -36 -8 -83
-10 -105 -16 -138 -20 -179 -30 -280 -3 -33 -8 -78 -10 -100 -9 -82 -17 -161
-20 -195 -5 -47 -15 -146 -20 -195 -2 -22 -7 -67 -10 -100 -3 -33 -8 -73 -10
-90 -2 -16 -7 -61 -10 -100 -3 -38 -8 -86 -11 -105 -5 -39 -12 -117 -20 -200
-6 -76 -12 -102 -22 -109 -11 -7 -66 -94 -64 -101 1 -3 -1 -21 -6 -40 -4 -21
-9 59 -12 200 -5 222 -7 238 -29 280 -13 25 -34 57 -48 71 -17 19 -25 41 -28
75 -4 53 -13 192 -21 314 -2 41 -7 109 -9 150 -3 41 -8 109 -10 150 -3 41 -7
107 -10 145 -3 39 -7 107 -10 151 -5 97 -13 216 -20 299 -7 98 -17 257 -19
302 -1 53 -16 57 -17 6 0 -21 -2 -47 -4 -58 -2 -11 -7 -51 -10 -90 -3 -38 -7
-88 -10 -110 -13 -108 -16 -134 -21 -190 -6 -71 -11 -123 -19 -185 -3 -25 -7
-70 -10 -100 -2 -30 -6 -71 -9 -90 -3 -19 -8 -62 -10 -95 -3 -33 -8 -80 -11
-105 -3 -25 -7 -67 -10 -95 -2 -27 -7 -75 -10 -105 -3 -30 -8 -73 -10 -95 -8
-85 -16 -161 -20 -190 -2 -16 -4 -39 -4 -51 -1 -11 -10 -29 -20 -41 -11 -11
-30 -40 -43 -64 l-23 -44 -3 -520 c-1 -286 -3 -551 -5 -589 l-2 -69 -150 -3
c-160 -2 -209 -12 -292 -61 -47 -27 -103 -86 -130 -135 -27 -51 -25 -170 4
-226 34 -63 77 -106 141 -140 77 -40 141 -54 240 -53 l84 1 -8 -33 c-18 -81
-5 -159 37 -218 18 -25 19 -81 22 -1400 2 -756 7 -1392 11 -1414 4 -22 21 -78
38 -125 l29 -85 2 -1333 c2 -1242 1 -1338 -15 -1391 -29 -95 -121 -172 -225
-188 -66 -10 -1524 -9 -1531 1 -3 6 -6 1581 -7 3500 -2 1920 -5 3502 -8 3516
-3 14 -9 39 -12 57 -30 156 -173 364 -319 463 -57 39 -180 100 -201 100 -7 0
-31 32 -51 70 -21 39 -42 70 -46 70 -4 0 -8 6 -8 13 0 8 -33 48 -74 89 -130
133 -259 206 -451 255 -16 4 -1261 9 -2765 10 -2647 3 -2738 2 -2820 -16 -328
-73 -574 -310 -656 -631 -19 -73 -19 -186 -19 -4765 l0 -4690 23 -78 c45 -158
114 -276 221 -384 120 -121 289 -210 451 -238 19 -3 37 -10 40 -15 26 -42 110
-134 161 -175 97 -79 241 -143 370 -164 74 -13 5490 -11 5527 2 12 4 32 9 43
12 163 35 331 151 446 305 102 137 144 273 148 480 2 74 4 143 4 153 1 16 89
17 1749 18 961 0 1765 1 1787 3 145 13 200 18 205 21 3 2 21 6 40 9 352 56
638 209 765 411 35 55 81 163 90 210 3 17 8 41 11 55 3 14 7 887 8 1941 1
1425 4 1920 12 1930 7 8 19 39 29 69 44 148 44 127 44 1685 l1 1480 58 1 c158
5 237 32 314 111 61 63 86 125 84 209 -2 57 -8 81 -30 118 -38 65 -87 111
-151 141 -65 31 -123 41 -228 40 l-79 -1 8 31 c14 62 6 137 -23 194 l-27 56
-1 435 c-1 479 -1 478 -63 564 -24 32 -36 61 -37 85 -1 20 -5 86 -9 146 -4 61
-9 142 -11 180 -3 39 -7 99 -10 135 -3 36 -7 112 -10 170 -3 58 -7 128 -9 155
-3 28 -7 100 -11 160 -3 61 -8 139 -10 175 -3 36 -7 112 -11 170 -3 58 -8 123
-9 145 -2 22 -4 62 -4 89 -1 27 -3 47 -6 44 -7 -6 -11 -43 -30 -283 -3 -27 -7
-66 -9 -85 -3 -19 -8 -64 -11 -100 -3 -36 -8 -85 -10 -110 -10 -107 -17 -178
-20 -215 -6 -72 -16 -179 -21 -220 -11 -107 -14 -135 -19 -195 -3 -36 -7 -87
-10 -115 -3 -27 -8 -75 -11 -105 -3 -30 -7 -68 -8 -85 -2 -16 -4 -44 -5 -61
-1 -20 -13 -44 -36 -70 -69 -77 -70 -86 -70 -501 0 -205 -3 -373 -7 -373 -5 0
-9 255 -9 568 -1 312 -3 577 -4 589 -3 30 -42 103 -70 133 -21 22 -25 38 -30
135 -9 169 -13 232 -20 329 -6 94 -12 187 -20 326 -15 256 -24 402 -30 485 -4
53 -10 149 -20 313 -2 29 -6 56 -9 59 -2 3 -5 -3 -4 -13z m-1755 -2256 c-3 -7
-5 -2 -5 12 0 14 2 19 5 13 2 -7 2 -19 0 -25z m3 -34 c0 -8 -5 -12 -10 -9 -6
4 -8 11 -5 16 9 14 15 11 15 -7z m-3 -76 c-3 -8 -6 -5 -6 6 -1 11 2 17 5 13 3
-3 4 -12 1 -19z m0 -40 c-3 -8 -6 -5 -6 6 -1 11 2 17 5 13 3 -3 4 -12 1 -19z
m0 -40 c-3 -8 -6 -5 -6 6 -1 11 2 17 5 13 3 -3 4 -12 1 -19z m0 -40 c-3 -8 -6
-5 -6 6 -1 11 2 17 5 13 3 -3 4 -12 1 -19z m0 -40 c-3 -8 -6 -5 -6 6 -1 11 2
17 5 13 3 -3 4 -12 1 -19z m0 -40 c-3 -8 -6 -5 -6 6 -1 11 2 17 5 13 3 -3 4
-12 1 -19z m0 -40 c-3 -8 -6 -5 -6 6 -1 11 2 17 5 13 3 -3 4 -12 1 -19z m0
-40 c-3 -8 -6 -5 -6 6 -1 11 2 17 5 13 3 -3 4 -12 1 -19z m0 -57 c0 -11 -5
-18 -9 -15 -4 3 -5 11 -1 19 7 21 12 19 10 -4z m0 -73 c-3 -7 -5 -2 -5 12 0
14 2 19 5 13 2 -7 2 -19 0 -25z m0 -60 c-3 -7 -5 -2 -5 12 0 14 2 19 5 13 2
-7 2 -19 0 -25z m0 -60 c-3 -7 -5 -2 -5 12 0 14 2 19 5 13 2 -7 2 -19 0 -25z
m2001 -6227 l-3 -1866 -24 -40 c-24 -38 -56 -73 -115 -122 -14 -13 -26 -20
-26 -16 0 3 -8 -1 -18 -10 -51 -46 -262 -112 -420 -133 -26 -3 -58 -7 -72 -9
-14 -2 -74 -6 -135 -9 l-110 -6 90 20 c238 51 442 148 573 274 112 106 193
271 206 417 2 24 5 816 5 1759 l1 1715 25 -54 25 -53 -2 -1867z m-1978 557 c1
-1512 7 -1402 -80 -1489 -71 -71 -129 -89 -307 -92 -92 -2 -147 1 -150 8 -4 5
-3 7 1 3 7 -6 37 4 122 43 130 58 270 217 314 354 7 22 18 46 24 54 6 8 10 16
8 18 -3 3 8 64 24 138 4 17 8 552 10 1190 1 638 3 1162 4 1165 0 3 7 -10 15
-28 12 -28 15 -229 15 -1364z"/>
</g>
</svg>
